<svg xmlns="http://www.w3.org/2000/svg" width="256" height="256" viewBox="0 0 100 100"><rect width="100" height="100" rx="50" fill="#ff385c"></rect><path d="M50.36 82.04L50.36 82.04Q40.37 82.04 33.53 73.67Q26.69 65.30 26.69 53.15L26.69 53.15Q26.69 38.30 34.92 28.13Q43.16 17.96 55.13 17.96L55.13 17.96Q59.81 17.96 63.81 18.91Q67.82 19.85 69.53 20.84L69.53 20.84L71.15 21.83L65.03 34.34Q62.96 32.54 59.18 30.96Q55.40 29.39 52.34 29.39L52.34 29.39Q46.13 29.39 42.39 34.52Q38.66 39.65 38.66 49.14Q38.66 58.64 42.53 64.72Q46.40 70.79 53.06 70.79L53.06 70.79Q57.38 70.79 60.89 68.09Q64.40 65.39 65.84 60.89L65.84 60.89L73.31 65.21Q70.34 73.13 64.22 77.58Q58.10 82.04 50.36 82.04Z" fill="#fff"></path></svg>